<svg xmlns="http://www.w3.org/2000/svg" xmlns:xlink="http://www.w3.org/1999/xlink" width="500" zoomAndPan="magnify" viewBox="0 0 375 374.999991" height="500" preserveAspectRatio="xMidYMid meet" version="1.0"><defs><clipPath id="d700881097"><path d="M 0 51.25 L 375 51.25 L 375 323.5 L 0 323.5 Z M 0 51.25 " clip-rule="nonzero"/></clipPath></defs><g clip-path="url(#d700881097)"><path fill="#000000" d="M 0.0351562 323.410156 L 0.0351562 289.402344 L 34.121094 289.402344 L 34.121094 323.410156 Z M 340.898438 323.410156 L 340.898438 289.402344 L 374.984375 289.402344 L 374.984375 323.410156 Z M 68.207031 323.410156 L 68.207031 289.402344 L 34.121094 289.402344 L 34.121094 255.398438 L 0.0351562 255.398438 L 0.0351562 221.390625 L 34.121094 221.390625 L 34.121094 187.386719 L 68.207031 187.386719 L 68.207031 221.390625 L 102.292969 221.390625 L 102.292969 187.386719 L 68.207031 187.386719 L 68.207031 153.378906 L 102.292969 153.378906 L 102.292969 119.375 L 136.378906 119.375 L 136.378906 153.378906 L 238.636719 153.378906 L 238.636719 119.375 L 272.726562 119.375 L 272.726562 153.378906 L 306.808594 153.378906 L 306.808594 187.386719 L 272.726562 187.386719 L 272.726562 221.390625 L 306.808594 221.390625 L 306.808594 187.386719 L 340.898438 187.386719 L 340.898438 221.390625 L 374.984375 221.390625 L 374.984375 255.398438 L 340.898438 255.398438 L 340.898438 289.402344 L 306.808594 289.402344 L 306.808594 323.410156 L 272.726562 323.410156 L 272.726562 289.402344 L 238.636719 289.402344 L 238.636719 323.410156 L 204.550781 323.410156 L 204.550781 289.402344 L 170.464844 289.402344 L 170.464844 323.410156 L 136.378906 323.410156 L 136.378906 289.402344 L 102.292969 289.402344 L 102.292969 323.410156 Z M 68.207031 119.375 L 68.207031 85.367188 L 102.292969 85.367188 L 102.292969 119.375 Z M 272.726562 119.375 L 272.726562 85.367188 L 306.808594 85.367188 L 306.808594 119.375 Z M 102.292969 85.367188 L 102.292969 51.363281 L 136.378906 51.363281 L 136.378906 85.367188 Z M 238.636719 85.367188 L 238.636719 51.363281 L 272.726562 51.363281 L 272.726562 85.367188 Z M 238.636719 85.367188 " fill-opacity="1" fill-rule="nonzero"/></g></svg>