<svg xmlns="http://www.w3.org/2000/svg" xmlns:xlink="http://www.w3.org/1999/xlink" width="500" zoomAndPan="magnify" viewBox="0 0 375 374.999991" height="500" preserveAspectRatio="xMidYMid meet" version="1.0"><defs><clipPath id="4c3215f6b7"><path d="M 31.953125 1 L 343.203125 1 L 343.203125 374 L 31.953125 374 Z M 31.953125 1 " clip-rule="nonzero"/></clipPath></defs><g clip-path="url(#4c3215f6b7)"><path fill="#000000" d="M 156.433594 187.5 L 156.433594 125.382812 L 94.183594 125.382812 L 94.183594 187.5 Z M 280.910156 187.5 L 280.910156 125.382812 L 218.660156 125.382812 L 218.660156 187.5 Z M 94.183594 373.855469 L 94.183594 311.738281 L 31.953125 311.738281 L 31.953125 63.265625 L 94.183594 63.265625 L 94.183594 1.148438 L 156.433594 1.148438 L 156.433594 63.265625 L 218.660156 63.265625 L 218.660156 1.148438 L 280.910156 1.148438 L 280.910156 63.265625 L 343.140625 63.265625 L 343.140625 311.738281 L 280.910156 311.738281 L 280.910156 373.855469 L 218.660156 373.855469 L 218.660156 311.738281 L 156.433594 311.738281 L 156.433594 373.855469 Z M 94.183594 373.855469 " fill-opacity="1" fill-rule="nonzero"/></g></svg>